<svg xmlns="http://www.w3.org/2000/svg" viewBox="0 0 760 430" font-family="Georgia, Palatino, 'Palatino Linotype', 'Liberation Serif', serif">
<rect width="100%" height="100%" fill="#ffffff"/>
<title>Incidents by the date they were recorded</title>
<text x="28" y="24" text-anchor="start" fill="#1c1916" font-size="15">Incidents by the date they were recorded</text>
<rect x="28" y="38" width="8" height="8" fill="#8f3b2e"/>
<text x="40" y="46" text-anchor="start" fill="#6f675e" font-size="11.5">Reached public</text>
<rect x="168" y="38" width="8" height="8" fill="#9a7430"/>
<text x="180" y="46" text-anchor="start" fill="#6f675e" font-size="11.5">Uncertain</text>
<rect x="280" y="38" width="8" height="8" fill="#1c4c3e"/>
<text x="292" y="46" text-anchor="start" fill="#6f675e" font-size="11.5">Caught / internal</text>
<line x1="430" y1="42" x2="444" y2="42" stroke="#163f35" stroke-width="1" stroke-dasharray="1.5 2"/>
<text x="448" y="46" text-anchor="start" fill="#6f675e" font-size="11">gate</text>
<line x1="540" y1="42" x2="554" y2="42" stroke="#163f35" stroke-width="1" stroke-dasharray="1.5 2"/>
<text x="558" y="46" text-anchor="start" fill="#6f675e" font-size="11">quality bar</text>
<line x1="650" y1="42" x2="664" y2="42" stroke="#163f35" stroke-width="1" stroke-dasharray="1.5 2"/>
<text x="668" y="46" text-anchor="start" fill="#6f675e" font-size="11">adversarial</text>
<line x1="48" y1="328" x2="730" y2="328" stroke="#f3efe8" stroke-width="1"/>
<text x="40" y="331" text-anchor="end" fill="#6f675e" font-size="10">0</text>
<line x1="48" y1="296" x2="730" y2="296" stroke="#f3efe8" stroke-width="1"/>
<text x="40" y="299" text-anchor="end" fill="#6f675e" font-size="10">5</text>
<line x1="48" y1="264" x2="730" y2="264" stroke="#f3efe8" stroke-width="1"/>
<text x="40" y="267" text-anchor="end" fill="#6f675e" font-size="10">10</text>
<line x1="48" y1="232" x2="730" y2="232" stroke="#f3efe8" stroke-width="1"/>
<text x="40" y="235" text-anchor="end" fill="#6f675e" font-size="10">15</text>
<line x1="48" y1="200" x2="730" y2="200" stroke="#f3efe8" stroke-width="1"/>
<text x="40" y="203" text-anchor="end" fill="#6f675e" font-size="10">20</text>
<line x1="48" y1="328" x2="730" y2="328" stroke="#1c1916" stroke-width="1"/>
<rect x="58" y="321.6" width="9" height="6.4" fill="#8f3b2e"/>
<text x="62.5" y="315.6" text-anchor="middle" fill="#1c1916" font-size="11">1</text>
<text x="62.5" y="344" text-anchor="middle" fill="#6f675e" font-size="11">19</text>
<rect x="102" y="315.2" width="9" height="12.8" fill="#8f3b2e"/>
<rect x="102" y="308.8" width="9" height="6.4" fill="#9a7430"/>
<text x="106.5" y="302.8" text-anchor="middle" fill="#1c1916" font-size="11">3</text>
<text x="106.5" y="344" text-anchor="middle" fill="#6f675e" font-size="11">20</text>
<rect x="146" y="321.6" width="9" height="6.4" fill="#8f3b2e"/>
<text x="150.5" y="315.6" text-anchor="middle" fill="#1c1916" font-size="11">1</text>
<text x="150.5" y="344" text-anchor="middle" fill="#6f675e" font-size="11">21</text>
<rect x="190" y="315.2" width="9" height="12.8" fill="#8f3b2e"/>
<rect x="190" y="308.8" width="9" height="6.4" fill="#9a7430"/>
<rect x="190" y="302.4" width="9" height="6.4" fill="#1c4c3e"/>
<text x="194.5" y="296.4" text-anchor="middle" fill="#1c1916" font-size="11">4</text>
<text x="194.5" y="344" text-anchor="middle" fill="#6f675e" font-size="11">22</text>
<rect x="234" y="315.2" width="9" height="12.8" fill="#8f3b2e"/>
<rect x="234" y="302.4" width="9" height="12.8" fill="#9a7430"/>
<rect x="234" y="289.6" width="9" height="12.8" fill="#1c4c3e"/>
<text x="238.5" y="283.6" text-anchor="middle" fill="#1c1916" font-size="11">6</text>
<text x="238.5" y="344" text-anchor="middle" fill="#6f675e" font-size="11">23</text>
<line x1="270" y1="62" x2="270" y2="328" stroke="#163f35" stroke-width="1" stroke-dasharray="1.5 2.5"/>
<rect x="278" y="296" width="9" height="32" fill="#8f3b2e"/>
<rect x="278" y="289.6" width="9" height="6.4" fill="#9a7430"/>
<rect x="278" y="232" width="9" height="57.6" fill="#1c4c3e"/>
<text x="282.5" y="226" text-anchor="middle" fill="#1c1916" font-size="11">15</text>
<text x="282.5" y="344" text-anchor="middle" fill="#6f675e" font-size="11">24</text>
<line x1="314" y1="62" x2="314" y2="328" stroke="#163f35" stroke-width="1" stroke-dasharray="1.5 2.5"/>
<rect x="322" y="321.6" width="9" height="6.4" fill="#9a7430"/>
<rect x="322" y="308.8" width="9" height="12.8" fill="#1c4c3e"/>
<text x="326.5" y="302.8" text-anchor="middle" fill="#1c1916" font-size="11">3</text>
<text x="326.5" y="344" text-anchor="middle" fill="#6f675e" font-size="11">25</text>
<line x1="358" y1="62" x2="358" y2="328" stroke="#163f35" stroke-width="1" stroke-dasharray="1.5 2.5"/>
<rect x="366" y="244.8" width="9" height="83.2" fill="#1c4c3e"/>
<text x="370.5" y="238.8" text-anchor="middle" fill="#1c1916" font-size="11">13</text>
<text x="370.5" y="344" text-anchor="middle" fill="#6f675e" font-size="11">26</text>
<rect x="410" y="308.8" width="9" height="19.2" fill="#8f3b2e"/>
<rect x="410" y="200" width="9" height="108.8" fill="#1c4c3e"/>
<text x="414.5" y="194" text-anchor="middle" fill="#1c1916" font-size="11">20</text>
<text x="414.5" y="344" text-anchor="middle" fill="#6f675e" font-size="11">27</text>
<rect x="454" y="315.2" width="9" height="12.8" fill="#8f3b2e"/>
<rect x="454" y="302.4" width="9" height="12.8" fill="#9a7430"/>
<rect x="454" y="296" width="9" height="6.4" fill="#1c4c3e"/>
<text x="458.5" y="290" text-anchor="middle" fill="#1c1916" font-size="11">5</text>
<text x="458.5" y="344" text-anchor="middle" fill="#6f675e" font-size="11">28</text>
<rect x="498" y="315.2" width="9" height="12.8" fill="#8f3b2e"/>
<rect x="498" y="308.8" width="9" height="6.4" fill="#1c4c3e"/>
<text x="502.5" y="302.8" text-anchor="middle" fill="#1c1916" font-size="11">3</text>
<text x="502.5" y="344" text-anchor="middle" fill="#6f675e" font-size="11">29</text>
<text x="546.5" y="344" text-anchor="middle" fill="#6f675e" font-size="11">30</text>
<rect x="586" y="321.6" width="9" height="6.4" fill="#8f3b2e"/>
<rect x="586" y="315.2" width="9" height="6.4" fill="#1c4c3e"/>
<text x="590.5" y="309.2" text-anchor="middle" fill="#1c1916" font-size="11">2</text>
<text x="590.5" y="344" text-anchor="middle" fill="#6f675e" font-size="11">1</text>
<rect x="630" y="315.2" width="9" height="12.8" fill="#1c4c3e"/>
<text x="634.5" y="309.2" text-anchor="middle" fill="#1c1916" font-size="11">2</text>
<text x="634.5" y="344" text-anchor="middle" fill="#6f675e" font-size="11">2</text>
<rect x="674" y="321.6" width="9" height="6.4" fill="#8f3b2e"/>
<text x="678.5" y="315.6" text-anchor="middle" fill="#1c1916" font-size="11">1</text>
<text x="678.5" y="344" text-anchor="middle" fill="#6f675e" font-size="11">3</text>
<line x1="62.5" y1="356" x2="546.5" y2="356" stroke="#e4ddd2"/>
<line x1="590.5" y1="356" x2="678.5" y2="356" stroke="#e4ddd2"/>
<text x="304.5" y="372" text-anchor="middle" fill="#6f675e" font-size="12">September</text>
<text x="634.5" y="372" text-anchor="middle" fill="#6f675e" font-size="12">October</text>
<text x="380" y="394" text-anchor="middle" fill="#6f675e" font-size="12">Date recorded, 2026</text>
<text transform="translate(16,210) rotate(-90)" text-anchor="middle" fill="#6f675e" font-size="12">Incidents</text>
</svg>
