<svg xmlns="http://www.w3.org/2000/svg" viewBox="0 0 700 668" font-family="Georgia, Palatino, 'Palatino Linotype', 'Liberation Serif', serif">
<rect width="100%" height="100%" fill="#ffffff"/>
<title>Incidents by class and reach, and detections by control</title>
<text x="28" y="32" text-anchor="start" fill="#1c1916" font-size="15">A</text>
<text x="48" y="32" text-anchor="start" fill="#1c1916" font-size="15">Incidents by class and reach</text>
<text x="28" y="50" text-anchor="start" fill="#6f675e" font-size="11">Each dot is one incident</text>
<text x="236" y="82" text-anchor="end" fill="#1c1916" font-size="12.5">Unsupported novelty</text>
<circle cx="255.4" cy="78" r="3.4" fill="#8f3b2e"/>
<circle cx="266.4" cy="78" r="3.4" fill="#8f3b2e"/>
<circle cx="277.4" cy="78" r="3.4" fill="#8f3b2e"/>
<circle cx="288.4" cy="78" r="3.4" fill="#8f3b2e"/>
<text x="298.8" y="81.5" text-anchor="start" fill="#6f675e" font-size="10">4</text>
<circle cx="328.2" cy="78" r="3.4" fill="#1c4c3e"/>
<circle cx="339.2" cy="78" r="3.4" fill="#1c4c3e"/>
<circle cx="350.2" cy="78" r="3.4" fill="#1c4c3e"/>
<circle cx="361.2" cy="78" r="3.4" fill="#1c4c3e"/>
<circle cx="372.2" cy="78" r="3.4" fill="#1c4c3e"/>
<text x="382.6" y="81.5" text-anchor="start" fill="#6f675e" font-size="10">5</text>
<text x="236" y="116" text-anchor="end" fill="#1c1916" font-size="12.5">Literature misuse</text>
<circle cx="255.4" cy="112" r="3.4" fill="#8f3b2e"/>
<circle cx="266.4" cy="112" r="3.4" fill="#8f3b2e"/>
<text x="276.8" y="115.5" text-anchor="start" fill="#6f675e" font-size="10">2</text>
<circle cx="306.2" cy="112" r="3.4" fill="#9a7430"/>
<circle cx="317.2" cy="112" r="3.4" fill="#9a7430"/>
<circle cx="328.2" cy="112" r="3.4" fill="#9a7430"/>
<text x="338.6" y="115.5" text-anchor="start" fill="#6f675e" font-size="10">3</text>
<circle cx="368" cy="112" r="3.4" fill="#1c4c3e"/>
<circle cx="379" cy="112" r="3.4" fill="#1c4c3e"/>
<circle cx="390" cy="112" r="3.4" fill="#1c4c3e"/>
<circle cx="401" cy="112" r="3.4" fill="#1c4c3e"/>
<circle cx="412" cy="112" r="3.4" fill="#1c4c3e"/>
<circle cx="423" cy="112" r="3.4" fill="#1c4c3e"/>
<circle cx="434" cy="112" r="3.4" fill="#1c4c3e"/>
<circle cx="445" cy="112" r="3.4" fill="#1c4c3e"/>
<circle cx="456" cy="112" r="3.4" fill="#1c4c3e"/>
<circle cx="467" cy="112" r="3.4" fill="#1c4c3e"/>
<circle cx="478" cy="112" r="3.4" fill="#1c4c3e"/>
<circle cx="489" cy="112" r="3.4" fill="#1c4c3e"/>
<circle cx="500" cy="112" r="3.4" fill="#1c4c3e"/>
<text x="510.4" y="115.5" text-anchor="start" fill="#6f675e" font-size="10">13</text>
<text x="236" y="150" text-anchor="end" fill="#1c1916" font-size="12.5">Wrong numbers / overstated</text>
<circle cx="255.4" cy="146" r="3.4" fill="#8f3b2e"/>
<circle cx="266.4" cy="146" r="3.4" fill="#8f3b2e"/>
<circle cx="277.4" cy="146" r="3.4" fill="#8f3b2e"/>
<circle cx="288.4" cy="146" r="3.4" fill="#8f3b2e"/>
<circle cx="299.4" cy="146" r="3.4" fill="#8f3b2e"/>
<circle cx="310.4" cy="146" r="3.4" fill="#8f3b2e"/>
<text x="320.8" y="149.5" text-anchor="start" fill="#6f675e" font-size="10">6</text>
<circle cx="350.2" cy="146" r="3.4" fill="#9a7430"/>
<circle cx="361.2" cy="146" r="3.4" fill="#9a7430"/>
<circle cx="372.2" cy="146" r="3.4" fill="#9a7430"/>
<text x="382.6" y="149.5" text-anchor="start" fill="#6f675e" font-size="10">3</text>
<circle cx="412" cy="146" r="3.4" fill="#1c4c3e"/>
<circle cx="423" cy="146" r="3.4" fill="#1c4c3e"/>
<circle cx="434" cy="146" r="3.4" fill="#1c4c3e"/>
<circle cx="445" cy="146" r="3.4" fill="#1c4c3e"/>
<circle cx="456" cy="146" r="3.4" fill="#1c4c3e"/>
<circle cx="467" cy="146" r="3.4" fill="#1c4c3e"/>
<circle cx="478" cy="146" r="3.4" fill="#1c4c3e"/>
<circle cx="489" cy="146" r="3.4" fill="#1c4c3e"/>
<circle cx="500" cy="146" r="3.4" fill="#1c4c3e"/>
<circle cx="511" cy="146" r="3.4" fill="#1c4c3e"/>
<text x="521.4" y="149.5" text-anchor="start" fill="#6f675e" font-size="10">10</text>
<text x="236" y="184" text-anchor="end" fill="#1c1916" font-size="12.5">Verification could not fail</text>
<circle cx="255.4" cy="180" r="3.4" fill="#8f3b2e"/>
<circle cx="266.4" cy="180" r="3.4" fill="#8f3b2e"/>
<circle cx="277.4" cy="180" r="3.4" fill="#8f3b2e"/>
<circle cx="288.4" cy="180" r="3.4" fill="#8f3b2e"/>
<circle cx="299.4" cy="180" r="3.4" fill="#8f3b2e"/>
<text x="309.8" y="183.5" text-anchor="start" fill="#6f675e" font-size="10">5</text>
<circle cx="339.2" cy="180" r="3.4" fill="#9a7430"/>
<text x="349.6" y="183.5" text-anchor="start" fill="#6f675e" font-size="10">1</text>
<circle cx="379" cy="180" r="3.4" fill="#1c4c3e"/>
<circle cx="390" cy="180" r="3.4" fill="#1c4c3e"/>
<circle cx="401" cy="180" r="3.4" fill="#1c4c3e"/>
<circle cx="412" cy="180" r="3.4" fill="#1c4c3e"/>
<circle cx="423" cy="180" r="3.4" fill="#1c4c3e"/>
<circle cx="434" cy="180" r="3.4" fill="#1c4c3e"/>
<circle cx="445" cy="180" r="3.4" fill="#1c4c3e"/>
<circle cx="456" cy="180" r="3.4" fill="#1c4c3e"/>
<circle cx="467" cy="180" r="3.4" fill="#1c4c3e"/>
<circle cx="478" cy="180" r="3.4" fill="#1c4c3e"/>
<circle cx="489" cy="180" r="3.4" fill="#1c4c3e"/>
<circle cx="500" cy="180" r="3.4" fill="#1c4c3e"/>
<circle cx="511" cy="180" r="3.4" fill="#1c4c3e"/>
<circle cx="522" cy="180" r="3.4" fill="#1c4c3e"/>
<text x="532.4" y="183.5" text-anchor="start" fill="#6f675e" font-size="10">14</text>
<text x="236" y="218" text-anchor="end" fill="#1c1916" font-size="12.5">Process and tooling</text>
<circle cx="255.4" cy="214" r="3.4" fill="#8f3b2e"/>
<circle cx="266.4" cy="214" r="3.4" fill="#8f3b2e"/>
<circle cx="277.4" cy="214" r="3.4" fill="#8f3b2e"/>
<circle cx="288.4" cy="214" r="3.4" fill="#8f3b2e"/>
<circle cx="299.4" cy="214" r="3.4" fill="#8f3b2e"/>
<text x="309.8" y="217.5" text-anchor="start" fill="#6f675e" font-size="10">5</text>
<circle cx="339.2" cy="214" r="3.4" fill="#9a7430"/>
<text x="349.6" y="217.5" text-anchor="start" fill="#6f675e" font-size="10">1</text>
<circle cx="379" cy="214" r="3.4" fill="#1c4c3e"/>
<circle cx="390" cy="214" r="3.4" fill="#1c4c3e"/>
<circle cx="401" cy="214" r="3.4" fill="#1c4c3e"/>
<circle cx="412" cy="214" r="3.4" fill="#1c4c3e"/>
<circle cx="423" cy="214" r="3.4" fill="#1c4c3e"/>
<circle cx="434" cy="214" r="3.4" fill="#1c4c3e"/>
<circle cx="445" cy="214" r="3.4" fill="#1c4c3e"/>
<circle cx="456" cy="214" r="3.4" fill="#1c4c3e"/>
<text x="466.4" y="217.5" text-anchor="start" fill="#6f675e" font-size="10">8</text>
<line x1="640" y1="60" x2="640" y2="226" stroke="#e4ddd2" stroke-width="1"/>
<text x="668" y="82" text-anchor="end" fill="#1c1916" font-size="13">9</text>
<text x="668" y="116" text-anchor="end" fill="#1c1916" font-size="13">18</text>
<text x="668" y="150" text-anchor="end" fill="#1c1916" font-size="13">19</text>
<text x="668" y="184" text-anchor="end" fill="#1c1916" font-size="13">20</text>
<text x="668" y="218" text-anchor="end" fill="#1c1916" font-size="13">14</text>
<circle cx="32" cy="251" r="3.4" fill="#8f3b2e"/>
<text x="42" y="254" text-anchor="start" fill="#6f675e" font-size="11.5">Reached public</text>
<circle cx="180" cy="251" r="3.4" fill="#9a7430"/>
<text x="190" y="254" text-anchor="start" fill="#6f675e" font-size="11.5">Uncertain</text>
<circle cx="304" cy="251" r="3.4" fill="#1c4c3e"/>
<text x="314" y="254" text-anchor="start" fill="#6f675e" font-size="11.5">Caught / internal</text>
<text x="28" y="300" text-anchor="start" fill="#1c1916" font-size="15">B</text>
<text x="48" y="300" text-anchor="start" fill="#1c1916" font-size="15">What caught them</text>
<text x="28" y="318" text-anchor="start" fill="#6f675e" font-size="11">Detections. One incident can have more than one.</text>
<line x1="268" y1="330" x2="268" y2="616" stroke="#e4ddd2" stroke-width="1"/>
<text x="268" y="324" text-anchor="middle" fill="#6f675e" font-size="10">0</text>
<line x1="388" y1="330" x2="388" y2="616" stroke="#f3efe8" stroke-width="1"/>
<text x="388" y="324" text-anchor="middle" fill="#6f675e" font-size="10">10</text>
<line x1="508" y1="330" x2="508" y2="616" stroke="#f3efe8" stroke-width="1"/>
<text x="508" y="324" text-anchor="middle" fill="#6f675e" font-size="10">20</text>
<line x1="628" y1="330" x2="628" y2="616" stroke="#f3efe8" stroke-width="1"/>
<text x="628" y="324" text-anchor="middle" fill="#6f675e" font-size="10">30</text>
<text x="256" y="350" text-anchor="end" fill="#1c1916" font-size="12.5">AI referee reading</text>
<line x1="268" y1="346" x2="604" y2="346" stroke="#163f35" stroke-width="1.25"/>
<circle cx="604" cy="346" r="3.6" fill="#163f35"/>
<text x="614" y="350" text-anchor="start" fill="#1c1916" font-size="12">28</text>
<text x="256" y="376" text-anchor="end" fill="#1c1916" font-size="12.5">Working session itself</text>
<line x1="268" y1="372" x2="460" y2="372" stroke="#cfc6ba" stroke-width="1.25"/>
<circle cx="460" cy="372" r="3.4" fill="#ffffff" stroke="#163f35" stroke-width="1.25"/>
<text x="470" y="376" text-anchor="start" fill="#1c1916" font-size="12">16</text>
<text x="256" y="402" text-anchor="end" fill="#1c1916" font-size="12.5">Adversarial verification</text>
<line x1="268" y1="398" x2="400" y2="398" stroke="#163f35" stroke-width="1.25"/>
<circle cx="400" cy="398" r="3.6" fill="#163f35"/>
<text x="410" y="402" text-anchor="start" fill="#1c1916" font-size="12">11</text>
<text x="256" y="428" text-anchor="end" fill="#1c1916" font-size="12.5">Full source reading</text>
<line x1="268" y1="424" x2="340" y2="424" stroke="#cfc6ba" stroke-width="1.25"/>
<circle cx="340" cy="424" r="3.4" fill="#ffffff" stroke="#163f35" stroke-width="1.25"/>
<text x="350" y="428" text-anchor="start" fill="#1c1916" font-size="12">6</text>
<text x="256" y="454" text-anchor="end" fill="#1c1916" font-size="12.5">Literature / novelty audit</text>
<line x1="268" y1="450" x2="340" y2="450" stroke="#cfc6ba" stroke-width="1.25"/>
<circle cx="340" cy="450" r="3.4" fill="#ffffff" stroke="#163f35" stroke-width="1.25"/>
<text x="350" y="454" text-anchor="start" fill="#1c1916" font-size="12">6</text>
<text x="256" y="480" text-anchor="end" fill="#1c1916" font-size="12.5">Owner</text>
<line x1="268" y1="476" x2="316" y2="476" stroke="#cfc6ba" stroke-width="1.25"/>
<circle cx="316" cy="476" r="3.4" fill="#ffffff" stroke="#163f35" stroke-width="1.25"/>
<text x="326" y="480" text-anchor="start" fill="#1c1916" font-size="12">4</text>
<text x="256" y="506" text-anchor="end" fill="#1c1916" font-size="12.5">Re-run or download</text>
<line x1="268" y1="502" x2="304" y2="502" stroke="#cfc6ba" stroke-width="1.25"/>
<circle cx="304" cy="502" r="3.4" fill="#ffffff" stroke="#163f35" stroke-width="1.25"/>
<text x="314" y="506" text-anchor="start" fill="#1c1916" font-size="12">3</text>
<text x="256" y="532" text-anchor="end" fill="#1c1916" font-size="12.5">This study</text>
<line x1="268" y1="528" x2="304" y2="528" stroke="#cfc6ba" stroke-width="1.25"/>
<circle cx="304" cy="528" r="3.4" fill="#ffffff" stroke="#163f35" stroke-width="1.25"/>
<text x="314" y="532" text-anchor="start" fill="#1c1916" font-size="12">3</text>
<text x="256" y="558" text-anchor="end" fill="#1c1916" font-size="12.5">Independent re-derivation</text>
<line x1="268" y1="554" x2="292" y2="554" stroke="#cfc6ba" stroke-width="1.25"/>
<circle cx="292" cy="554" r="3.4" fill="#ffffff" stroke="#163f35" stroke-width="1.25"/>
<text x="302" y="558" text-anchor="start" fill="#1c1916" font-size="12">2</text>
<text x="256" y="584" text-anchor="end" fill="#1c1916" font-size="12.5">CI</text>
<line x1="268" y1="580" x2="292" y2="580" stroke="#cfc6ba" stroke-width="1.25"/>
<circle cx="292" cy="580" r="3.4" fill="#ffffff" stroke="#163f35" stroke-width="1.25"/>
<text x="302" y="584" text-anchor="start" fill="#1c1916" font-size="12">2</text>
<text x="256" y="610" text-anchor="end" fill="#1c1916" font-size="12.5">Cross-assistant review</text>
<line x1="268" y1="606" x2="280" y2="606" stroke="#cfc6ba" stroke-width="1.25"/>
<circle cx="280" cy="606" r="3.4" fill="#ffffff" stroke="#163f35" stroke-width="1.25"/>
<text x="290" y="610" text-anchor="start" fill="#1c1916" font-size="12">1</text>
<text x="28" y="638" text-anchor="start" fill="#6f675e" font-size="11.5">Filled marks: in-project AI review, 39 of 80 incidents (49%).</text>
</svg>
